<svg xmlns="http://www.w3.org/2000/svg" width="49.882" height="42.124" viewBox="1092 1296.574 49.882 42.124"><g data-name="Group 630"><path d="M1112.042 1332.67h3.79a.976.976 0 0 1 0 1.954h-3.79a1.06 1.06 0 0 0 0 2.12h10.2a5.131 5.131 0 0 0 3.956-1.853l2.439-2.933a7.076 7.076 0 0 1 5.252-2.552v-5.769h-3.595a6.768 6.768 0 0 0-4.729 1.91l-5.263 5.082a.964.964 0 0 0-.04 1.34.96.96 0 0 0 1.353.056l4.134-3.789a.976.976 0 1 1 1.32 1.44l-4.133 3.789a2.897 2.897 0 0 1-1.968.764 2.903 2.903 0 0 1-2.14-.936 2.928 2.928 0 0 1 .117-4.07l5.265-5.082a8.713 8.713 0 0 1 6.084-2.457h3.785a2.42 2.42 0 0 1 2.23-1.482h4.597c.54 0 .976.438.976.977v7.14a.976.976 0 0 1-1.952 0v-6.163h-3.62a.467.467 0 0 0-.468.467v7.827c0 .258.209.468.468.468h1.013a.976.976 0 0 1 0 1.951h-1.013a2.425 2.425 0 0 1-2.246-1.515 5.126 5.126 0 0 0-3.925 1.853l-2.44 2.931a7.082 7.082 0 0 1-5.457 2.56h-10.2a3.017 3.017 0 0 1-3.013-3.013 3.017 3.017 0 0 1 3.013-3.014" fill-rule="evenodd" data-name="Path 305"/><path d="M1092.973 1305.564c.537 0 .973.436.973.973v6.521h3.609a.466.466 0 0 0 .465-.465v-7.8a.466.466 0 0 0-.465-.465h-.94a.974.974 0 0 1 0-1.947h.94a2.42 2.42 0 0 1 2.236 1.511 5.109 5.109 0 0 0 3.911-1.846l2.43-2.921a7.056 7.056 0 0 1 5.438-2.55h10.164a3.007 3.007 0 0 1 3.003 3.003 3.006 3.006 0 0 1-3.003 3.003h-4.157a.973.973 0 0 1 0-1.946h4.157a1.058 1.058 0 0 0 0-2.114h-10.164a5.113 5.113 0 0 0-3.941 1.848l-2.43 2.921a7.044 7.044 0 0 1-5.233 2.544v5.748h3.582c1.766 0 3.44-.675 4.71-1.902l5.247-5.065a.962.962 0 0 0 .038-1.336.959.959 0 0 0-1.349-.056l-4.118 3.777a.973.973 0 0 1-1.315-1.435l4.12-3.777a2.907 2.907 0 0 1 4.091.172 2.918 2.918 0 0 1-.115 4.055l-5.248 5.064a8.684 8.684 0 0 1-6.06 2.45h-3.772a2.42 2.42 0 0 1-2.222 1.475h-4.582a.974.974 0 0 1-.973-.973v-7.494c0-.537.436-.973.973-.973" fill-rule="evenodd" data-name="Path 306"/><path d="M1110.408 1329.668a.973.973 0 0 1 1.285-.487.972.972 0 1 1-.776 1.784l-.022-.008a.977.977 0 0 1-.487-1.29" fill-rule="evenodd" data-name="Path 307"/><path d="M1107.989 1328.03a.978.978 0 0 1 1.363-.205.974.974 0 0 1-1.15 1.57l-.012-.01a.967.967 0 0 1-.201-1.355" fill-rule="evenodd" data-name="Path 308"/><path d="M1113.128 1330.76a.975.975 0 0 1 1.15-.751.973.973 0 0 1-.372 1.91l-.029-.006a.972.972 0 0 1-.749-1.152" fill-rule="evenodd" data-name="Path 309"/><path d="m1106.491 1326.742.118-.105-.11.096-.008.01Zm-.534-.828c-.399.36-.43.973-.072 1.372a.972.972 0 0 0 1.467-1.278l-.02-.023a.972.972 0 0 0-1.375-.071" fill-rule="evenodd" data-name="Path 310"/><path d="M1103.48 1320.64a.975.975 0 0 1 1.214.652.97.97 0 0 1-.93 1.26.972.972 0 0 1-.929-.687l-.004-.014a.97.97 0 0 1 .649-1.21" fill-rule="evenodd" data-name="Path 311"/><path d="m1102.234 1315.619.006-.037a.974.974 0 0 1 1.907.392.973.973 0 0 1-1.913-.355" fill-rule="evenodd" data-name="Path 312"/><path d="M1103.126 1317.73a.974.974 0 0 1 1.058.922.975.975 0 0 1-.914 1.03h-.059a.972.972 0 0 1-.969-.901.973.973 0 0 1 .884-1.051" fill-rule="evenodd" data-name="Path 313"/><path d="M1104.433 1323.41a.972.972 0 0 1 1.326.367l.013.023a.977.977 0 0 1-.855 1.443.966.966 0 0 1-.85-.505l.845-.481-.846.479a.973.973 0 0 1 .367-1.326" fill-rule="evenodd" data-name="Path 314"/><path d="M1122.08 1304.879a.975.975 0 0 1 1.305-.436l.01.005a.97.97 0 0 1 .43 1.304.976.976 0 0 1-1.746-.873" fill-rule="evenodd" data-name="Path 315"/><path d="M1119.264 1304.068a.975.975 0 0 1 1.176-.717l.023.007a.974.974 0 0 1-.482 1.885.975.975 0 0 1-.717-1.175" fill-rule="evenodd" data-name="Path 316"/><path d="M1124.653 1306.282a.975.975 0 0 1 1.368-.149l-.604.763.606-.76a.972.972 0 1 1-1.212 1.522l-.013-.01a.973.973 0 0 1-.145-1.366" fill-rule="evenodd" data-name="Path 317"/><path d="M1129.856 1313.114a.977.977 0 0 1 1.2.685l.008.036a.976.976 0 0 1-1.896.467.978.978 0 0 1 .688-1.188" fill-rule="evenodd" data-name="Path 318"/><path d="M1130.479 1315.983a.977.977 0 0 1 1.032.956.974.974 0 0 1-.946 1.004h-.03a.977.977 0 0 1-.976-.94.976.976 0 0 1 .92-1.02" fill-rule="evenodd" data-name="Path 319"/><path d="M1128.627 1310.445a.976.976 0 0 1 1.32.412l.014.031a.974.974 0 0 1-.875 1.406.973.973 0 0 1-.874-.54.976.976 0 0 1 .415-1.309" fill-rule="evenodd" data-name="Path 320"/><path d="M1126.864 1308.096a.976.976 0 0 1 1.375.128l.021.024a.976.976 0 0 1-.765 1.583.976.976 0 0 1-.764-.366.977.977 0 0 1 .133-1.37" fill-rule="evenodd" data-name="Path 321"/><path d="M1129.374 1319.713a.976.976 0 1 1 1.922.344l-.001.01a.969.969 0 0 1-1.131.783.979.979 0 0 1-.79-1.137" fill-rule="evenodd" data-name="Path 322"/><path d="M1139.933 1331.894a.972.972 0 1 0 1.945 0 .972.972 0 0 0-1.945 0" fill-rule="evenodd" data-name="Path 323"/><path d="M1092.004 1303.355a.97.97 0 1 0 1.94-.002.97.97 0 0 0-1.94.002" fill-rule="evenodd" data-name="Path 324"/><path d="M1123.86 1312.761c-4.052.488-6.407-2.03-6.727-2.418v-.05l-.024.025c-.007-.013-.02-.025-.02-.025v.05c-.323.387-2.68 2.906-6.73 2.418 0 0-.95 11.357 6.743 13.02h.014c7.693-1.663 6.743-13.02 6.743-13.02Zm-8.171 9.876 1.42-3.652-2.796-.8 4.124-4.124-1.328 3.693 2.796.667-4.216 4.216Z" fill-rule="evenodd" data-name="Path 325"/></g></svg>