<svg xmlns="http://www.w3.org/2000/svg" width="37.272" height="37.273" viewBox="388 1299 37.272 37.273"><g data-name="Group 629"><path d="m422.94 1319.222-.006-3.169-3.566-.717a2.329 2.329 0 0 1-1.745-1.519 11.791 11.791 0 0 0-.519-1.251 2.32 2.32 0 0 1 .161-2.304l2.017-3.038-2.24-2.241-3.031 2.025a2.354 2.354 0 0 1-2.309.153 11.397 11.397 0 0 0-1.251-.516 2.328 2.328 0 0 1-1.518-1.742l-.717-3.572h-3.168l-.715 3.572a2.333 2.333 0 0 1-1.519 1.742c-.432.147-.848.323-1.252.523a2.318 2.318 0 0 1-1.012.226c-.455 0-.904-.129-1.291-.386l-3.037-2.025-2.241 2.241 2.025 3.038a2.32 2.32 0 0 1 .153 2.304c-.193.405-.368.825-.516 1.251a2.344 2.344 0 0 1-1.741 1.524l-3.571.712v3.169l3.571.716a2.328 2.328 0 0 1 1.741 1.519c.153.432.323.847.522 1.251a2.346 2.346 0 0 1-.159 2.309l-2.025 3.032 2.247 2.241 3.031-2.021a2.31 2.31 0 0 1 1.291-.391c.347 0 .694.08 1.018.233.404.2.819.37 1.252.523a2.336 2.336 0 0 1 1.519 1.742l.709 3.572h3.168l.717-3.572a2.332 2.332 0 0 1 1.518-1.742c.433-.153.847-.329 1.251-.523a2.388 2.388 0 0 1 1.018-.233c.449 0 .905.131 1.291.391l3.031 2.021 2.24-2.241-2.017-3.032a2.314 2.314 0 0 1-.161-2.309c.199-.404.37-.819.524-1.251.267-.78.932-1.36 1.74-1.519l3.572-.716Zm.454-5.457a2.34 2.34 0 0 1 1.878 2.288v3.169a2.334 2.334 0 0 1-1.878 2.286l-3.565.711a15.486 15.486 0 0 1-.625 1.506l2.018 3.032a2.337 2.337 0 0 1-.29 2.942l-2.241 2.241a2.335 2.335 0 0 1-2.94.29l-3.031-2.026c-.484.24-.983.45-1.501.626l-.717 3.572a2.328 2.328 0 0 1-2.286 1.871h-3.168a2.318 2.318 0 0 1-2.279-1.871l-.718-3.572a12.292 12.292 0 0 1-1.501-.626l-3.031 2.026a2.33 2.33 0 0 1-2.939-.29l-2.242-2.241a2.327 2.327 0 0 1-.29-2.942l2.019-3.032a15.667 15.667 0 0 1-.626-1.501l-3.572-.716a2.333 2.333 0 0 1-1.869-2.286v-3.169c0-1.11.784-2.065 1.869-2.288l3.572-.711c.182-.517.393-1.017.626-1.5l-2.019-3.038a2.319 2.319 0 0 1 .29-2.936l2.242-2.241a2.303 2.303 0 0 1 1.648-.681c.444 0 .893.123 1.291.386l3.031 2.025c.484-.233.984-.444 1.501-.627l.712-3.572a2.336 2.336 0 0 1 2.285-1.87h3.168c1.108 0 2.07.785 2.286 1.87l.711 3.572c.517.183 1.019.389 1.507.627l3.031-2.025a2.308 2.308 0 0 1 1.291-.386c.602 0 1.2.227 1.649.681l2.241 2.241c.784.785.904 2.015.29 2.936l-2.018 3.038c.233.483.442.983.625 1.5l3.565.711" fill-rule="evenodd" data-name="Path 303"/><path d="m404.54 1324.449-5.528-4.754 1.304-1.517 4.042 3.476 8.412-9.393 1.49 1.334-9.72 10.854Z" fill-rule="evenodd" data-name="Path 304"/></g></svg>